<svg id="svg" xmlns="http://www.w3.org/2000/svg" xmlns:xlink="http://www.w3.org/1999/xlink" width="400" height="400" viewBox="0, 0, 400,400" version="1.1"><g id="svgg"><path id="path0" d="M162.000 75.100 C 162.000 75.689,161.635 75.795,159.700 75.770 C 156.066 75.724,154.315 76.039,154.122 76.775 C 153.991 77.276,153.507 77.418,152.075 77.377 C 149.675 77.308,149.224 77.487,149.407 78.435 C 149.539 79.124,149.354 79.191,147.678 79.066 C 145.510 78.904,144.137 79.401,144.742 80.130 C 145.039 80.488,144.545 80.585,142.724 80.527 C 140.638 80.459,140.285 80.553,140.110 81.224 C 139.958 81.804,139.556 82.000,138.516 82.000 C 137.462 82.000,137.075 82.194,136.916 82.800 C 136.787 83.292,136.370 83.600,135.833 83.600 C 135.353 83.600,134.718 83.825,134.421 84.100 C 133.990 84.500,133.939 84.500,134.165 84.100 C 134.320 83.825,134.257 83.600,134.024 83.600 C 133.791 83.600,133.600 83.949,133.600 84.376 C 133.600 84.984,133.275 85.179,132.100 85.276 C 131.089 85.360,130.600 85.595,130.600 86.000 C 130.600 86.400,130.067 86.667,129.000 86.800 C 127.933 86.933,127.400 87.200,127.400 87.600 C 127.400 87.989,126.927 88.245,126.055 88.329 C 125.129 88.417,124.647 88.698,124.508 89.229 C 124.394 89.666,123.960 90.000,123.507 90.000 C 122.904 90.000,122.758 90.197,122.916 90.800 C 123.101 91.508,122.928 91.600,121.409 91.600 C 120.022 91.600,119.653 91.755,119.481 92.411 C 119.364 92.858,119.044 93.173,118.770 93.111 C 118.495 93.050,118.149 93.450,118.000 94.000 C 117.851 94.550,117.487 94.944,117.190 94.875 C 116.303 94.670,114.749 95.194,115.007 95.612 C 115.139 95.825,114.860 96.000,114.386 96.000 C 113.862 96.000,113.443 96.313,113.316 96.800 C 113.201 97.240,112.858 97.600,112.553 97.600 C 112.053 97.600,111.825 98.093,111.953 98.900 C 111.979 99.065,111.659 99.200,111.243 99.200 C 110.478 99.200,109.827 100.197,110.199 100.799 C 110.310 100.978,110.041 101.031,109.601 100.916 C 108.952 100.747,108.800 100.903,108.800 101.741 C 108.800 102.500,108.639 102.713,108.195 102.543 C 107.862 102.415,107.351 102.509,107.058 102.752 C 106.766 102.994,106.379 103.060,106.199 102.897 C 106.019 102.733,105.984 102.798,106.122 103.040 C 106.260 103.282,105.949 103.706,105.430 103.984 C 104.912 104.261,104.261 104.912,103.984 105.430 C 103.706 105.949,103.282 106.260,103.040 106.122 C 102.798 105.984,102.733 106.019,102.897 106.199 C 103.060 106.379,102.994 106.766,102.752 107.058 C 102.509 107.351,102.415 107.862,102.543 108.195 C 102.713 108.639,102.500 108.800,101.741 108.800 C 100.903 108.800,100.747 108.952,100.916 109.601 C 101.031 110.041,100.978 110.310,100.799 110.199 C 100.197 109.827,99.200 110.478,99.200 111.243 C 99.200 111.659,99.065 111.979,98.900 111.953 C 98.093 111.825,97.600 112.053,97.600 112.553 C 97.600 112.858,97.240 113.201,96.800 113.316 C 96.313 113.443,96.000 113.862,96.000 114.386 C 96.000 114.860,95.825 115.139,95.612 115.007 C 95.194 114.749,94.670 116.303,94.875 117.190 C 94.944 117.487,94.550 117.851,94.000 118.000 C 93.450 118.149,93.050 118.495,93.111 118.770 C 93.173 119.044,92.858 119.364,92.411 119.481 C 91.755 119.653,91.600 120.022,91.600 121.409 C 91.600 122.928,91.508 123.101,90.800 122.916 C 90.197 122.758,90.000 122.904,90.000 123.507 C 90.000 123.960,89.666 124.394,89.229 124.508 C 88.698 124.647,88.417 125.129,88.329 126.055 C 88.245 126.927,87.989 127.400,87.600 127.400 C 87.200 127.400,86.933 127.933,86.800 129.000 C 86.667 130.067,86.400 130.600,86.000 130.600 C 85.595 130.600,85.360 131.089,85.276 132.100 C 85.179 133.275,84.984 133.600,84.376 133.600 C 83.949 133.600,83.600 133.791,83.600 134.024 C 83.600 134.257,83.825 134.320,84.100 134.165 C 84.500 133.939,84.500 133.990,84.100 134.421 C 83.825 134.718,83.600 135.353,83.600 135.833 C 83.600 136.370,83.292 136.787,82.800 136.916 C 82.194 137.075,82.000 137.462,82.000 138.516 C 82.000 139.556,81.804 139.958,81.224 140.110 C 80.553 140.285,80.459 140.638,80.527 142.724 C 80.585 144.545,80.488 145.039,80.130 144.742 C 79.401 144.137,78.904 145.510,79.066 147.678 C 79.191 149.354,79.124 149.539,78.435 149.407 C 77.487 149.224,77.308 149.675,77.377 152.075 C 77.418 153.507,77.276 153.991,76.775 154.122 C 76.039 154.315,75.724 156.066,75.770 159.700 C 75.795 161.629,75.688 162.000,75.105 162.000 C 74.121 162.000,74.046 199.853,75.028 200.571 C 75.562 200.962,75.861 202.972,75.969 206.913 C 75.988 207.594,76.281 208.137,76.724 208.313 C 77.304 208.543,77.443 209.035,77.424 210.781 C 77.404 212.634,77.520 212.996,78.200 213.181 C 78.877 213.366,79.000 213.740,79.000 215.600 C 79.000 217.009,79.168 217.799,79.467 217.800 C 80.218 217.800,80.348 218.111,80.454 220.154 C 80.533 221.680,80.733 222.169,81.403 222.474 C 82.049 222.768,82.213 223.132,82.087 223.991 C 81.958 224.869,82.108 225.180,82.760 225.387 C 83.426 225.599,83.600 225.980,83.600 227.227 C 83.600 228.597,83.718 228.800,84.511 228.800 C 85.332 228.800,85.406 228.957,85.269 230.400 C 85.144 231.708,85.242 232.000,85.807 232.000 C 86.408 232.000,86.426 231.908,85.949 231.300 C 85.451 230.666,85.466 230.651,86.100 231.149 C 86.573 231.520,86.800 232.256,86.800 233.421 C 86.800 234.904,86.926 235.162,87.700 235.272 C 88.450 235.379,88.579 235.611,88.474 236.665 C 88.375 237.654,88.527 237.986,89.174 238.192 C 89.930 238.432,90.183 238.877,90.041 239.719 C 90.012 239.894,90.305 239.984,90.694 239.919 C 91.240 239.827,91.455 240.161,91.643 241.400 C 91.777 242.280,91.912 242.843,91.943 242.651 C 91.974 242.459,92.268 242.524,92.596 242.796 C 92.923 243.068,93.092 243.451,92.972 243.646 C 92.851 243.842,93.190 244.168,93.726 244.372 C 94.431 244.640,94.700 245.045,94.700 245.840 C 94.700 246.444,94.959 247.132,95.275 247.369 C 95.591 247.606,95.976 248.135,96.130 248.545 C 96.363 249.167,96.512 249.205,97.027 248.777 C 97.367 248.495,97.614 248.430,97.575 248.632 C 97.330 249.924,97.663 250.800,98.400 250.800 C 98.865 250.800,99.200 251.067,99.200 251.437 C 99.200 251.788,99.560 252.169,100.000 252.284 C 100.443 252.400,100.800 252.830,100.800 253.247 C 100.800 253.733,101.083 254.000,101.600 254.000 C 102.126 254.000,102.400 254.267,102.400 254.777 C 102.400 255.205,102.727 255.790,103.126 256.077 C 103.526 256.365,103.972 256.919,104.117 257.309 C 104.263 257.699,104.687 258.135,105.060 258.279 C 105.434 258.422,106.068 258.868,106.469 259.269 C 106.871 259.671,107.560 260.000,108.000 260.000 C 108.716 260.000,108.987 260.416,108.847 261.300 C 108.821 261.465,109.160 261.600,109.600 261.600 C 110.040 261.600,110.379 261.735,110.353 261.900 C 110.213 262.784,110.484 263.200,111.200 263.200 C 111.640 263.200,111.979 263.335,111.953 263.500 C 111.822 264.325,112.059 264.800,112.600 264.800 C 112.930 264.800,113.200 265.070,113.200 265.400 C 113.200 265.730,113.381 266.000,113.603 266.000 C 113.824 266.000,114.403 266.458,114.890 267.017 C 115.487 267.704,116.103 267.996,116.787 267.917 C 117.577 267.826,117.828 267.998,117.928 268.700 C 118.007 269.256,118.333 269.600,118.781 269.600 C 119.184 269.600,119.605 269.977,119.728 270.447 C 119.913 271.153,120.186 271.266,121.375 271.127 C 122.643 270.979,122.800 271.062,122.800 271.880 C 122.800 272.533,123.032 272.800,123.600 272.800 C 124.044 272.800,124.400 273.067,124.400 273.400 C 124.400 273.730,124.715 274.027,125.100 274.061 C 125.485 274.094,125.980 274.164,126.200 274.215 C 126.420 274.266,126.825 274.328,127.100 274.354 C 127.375 274.379,127.555 274.625,127.500 274.900 C 127.437 275.213,127.962 275.447,128.900 275.524 C 130.075 275.621,130.400 275.816,130.400 276.424 C 130.400 277.063,130.683 277.200,132.000 277.200 C 133.333 277.200,133.600 277.333,133.600 278.000 C 133.600 278.667,133.867 278.800,135.200 278.800 C 136.533 278.800,136.800 278.933,136.800 279.600 C 136.800 280.267,137.067 280.400,138.400 280.400 C 139.720 280.400,140.000 280.537,140.000 281.180 C 140.000 281.849,140.327 281.977,142.300 282.080 C 144.024 282.170,144.600 282.350,144.600 282.800 C 144.600 283.249,145.173 283.430,146.879 283.519 C 148.654 283.612,149.209 283.797,149.386 284.356 C 149.563 284.913,150.083 285.089,151.707 285.143 C 153.168 285.191,153.956 285.422,154.317 285.906 C 154.724 286.453,155.592 286.630,158.417 286.740 C 161.003 286.841,162.000 287.023,162.000 287.395 C 162.000 288.779,198.405 288.941,200.153 287.565 C 200.954 286.936,201.792 286.768,204.211 286.756 C 206.643 286.743,207.412 286.588,208.009 285.991 C 208.530 285.470,209.431 285.216,210.979 285.153 C 212.831 285.078,213.200 284.942,213.200 284.332 C 213.200 283.703,213.543 283.600,215.643 283.600 C 217.626 283.600,218.043 283.490,217.860 283.013 C 217.554 282.214,217.908 282.062,220.324 281.952 C 222.495 281.853,222.726 281.692,221.900 280.851 C 221.625 280.572,221.580 280.377,221.800 280.419 C 223.640 280.768,225.600 280.346,225.600 279.600 C 225.600 278.931,225.867 278.800,227.224 278.800 C 228.117 278.800,228.746 278.636,228.622 278.436 C 228.073 277.548,228.847 276.983,230.408 277.132 C 231.808 277.266,232.000 277.182,232.000 276.442 C 232.000 275.726,232.240 275.600,233.600 275.600 C 234.699 275.600,235.200 275.426,235.200 275.045 C 235.200 274.726,235.798 274.377,236.600 274.226 C 237.370 274.082,238.000 273.788,238.000 273.573 C 238.000 273.359,238.450 272.978,239.000 272.727 C 239.550 272.477,240.000 271.984,240.000 271.632 C 240.000 271.176,240.374 270.993,241.300 270.996 C 242.128 270.999,242.564 270.819,242.500 270.500 C 242.445 270.225,242.580 270.000,242.800 270.000 C 243.020 270.000,243.200 270.270,243.200 270.600 C 243.200 270.933,243.556 271.200,244.000 271.200 C 244.533 271.200,244.800 271.467,244.800 272.000 C 244.800 272.440,245.049 272.800,245.353 272.800 C 245.658 272.800,246.007 273.184,246.130 273.653 C 246.288 274.258,246.577 274.447,247.126 274.304 C 247.727 274.146,247.855 274.268,247.703 274.851 C 247.557 275.409,247.723 275.600,248.353 275.600 C 248.933 275.600,249.200 275.852,249.200 276.400 C 249.200 276.933,249.467 277.200,250.000 277.200 C 250.533 277.200,250.800 277.467,250.800 278.000 C 250.800 278.533,251.067 278.800,251.600 278.800 C 252.133 278.800,252.400 279.067,252.400 279.600 C 252.400 280.133,252.667 280.400,253.200 280.400 C 253.733 280.400,254.000 280.667,254.000 281.200 C 254.000 281.733,254.267 282.000,254.800 282.000 C 255.333 282.000,255.600 282.267,255.600 282.800 C 255.600 283.333,255.867 283.600,256.400 283.600 C 256.933 283.600,257.200 283.867,257.200 284.400 C 257.200 284.933,257.467 285.200,258.000 285.200 C 258.533 285.200,258.800 285.467,258.800 286.000 C 258.800 286.533,259.067 286.800,259.600 286.800 C 260.040 286.800,260.379 286.935,260.353 287.100 C 260.211 287.995,260.489 288.400,261.243 288.400 C 261.849 288.400,262.017 288.579,261.841 289.037 C 261.680 289.456,261.858 289.742,262.361 289.874 C 262.782 289.984,263.222 290.441,263.339 290.890 C 263.489 291.461,263.785 291.645,264.326 291.504 C 264.927 291.346,265.055 291.468,264.903 292.051 C 264.757 292.609,264.923 292.800,265.553 292.800 C 266.133 292.800,266.400 293.052,266.400 293.600 C 266.400 294.133,266.667 294.400,267.200 294.400 C 267.733 294.400,268.000 294.667,268.000 295.200 C 268.000 295.733,268.267 296.000,268.800 296.000 C 269.333 296.000,269.600 296.267,269.600 296.800 C 269.600 297.333,269.867 297.600,270.400 297.600 C 270.933 297.600,271.200 297.867,271.200 298.400 C 271.200 298.933,271.467 299.200,272.000 299.200 C 272.533 299.200,272.800 299.467,272.800 300.000 C 272.800 300.533,273.067 300.800,273.600 300.800 C 274.133 300.800,274.400 301.067,274.400 301.600 C 274.400 302.133,274.667 302.400,275.200 302.400 C 275.733 302.400,276.000 302.667,276.000 303.200 C 276.000 303.733,276.267 304.000,276.800 304.000 C 277.240 304.000,277.579 304.135,277.553 304.300 C 277.425 305.107,277.653 305.600,278.153 305.600 C 278.458 305.600,278.807 305.984,278.930 306.453 C 279.088 307.058,279.377 307.247,279.926 307.104 C 280.527 306.946,280.655 307.068,280.503 307.651 C 280.357 308.209,280.523 308.400,281.153 308.400 C 281.733 308.400,282.000 308.652,282.000 309.200 C 282.000 309.733,282.267 310.000,282.800 310.000 C 283.333 310.000,283.600 310.267,283.600 310.800 C 283.600 311.333,283.867 311.600,284.400 311.600 C 284.933 311.600,285.200 311.867,285.200 312.400 C 285.200 312.933,285.467 313.200,286.000 313.200 C 286.533 313.200,286.800 313.467,286.800 314.000 C 286.800 314.533,287.067 314.800,287.600 314.800 C 288.133 314.800,288.400 315.067,288.400 315.600 C 288.400 316.133,288.667 316.400,289.200 316.400 C 289.733 316.400,290.000 316.667,290.000 317.200 C 290.000 317.733,290.267 318.000,290.800 318.000 C 291.333 318.000,291.600 318.267,291.600 318.800 C 291.600 319.265,291.867 319.600,292.237 319.600 C 292.588 319.600,292.969 319.960,293.084 320.400 C 293.200 320.843,293.630 321.200,294.047 321.200 C 294.533 321.200,294.800 321.483,294.800 322.000 C 294.800 322.440,295.049 322.800,295.353 322.800 C 295.658 322.800,296.007 323.184,296.130 323.653 C 296.288 324.258,296.577 324.447,297.126 324.304 C 297.727 324.146,297.855 324.268,297.703 324.851 C 297.557 325.409,297.723 325.600,298.353 325.600 C 298.933 325.600,299.200 325.852,299.200 326.400 C 299.200 326.933,299.467 327.200,300.000 327.200 C 300.533 327.200,300.800 327.467,300.800 328.000 C 300.800 328.533,301.067 328.800,301.600 328.800 C 302.133 328.800,302.400 329.067,302.400 329.600 C 302.400 330.133,302.667 330.400,303.200 330.400 C 303.733 330.400,304.000 330.667,304.000 331.200 C 304.000 331.733,304.267 332.000,304.800 332.000 C 305.333 332.000,305.600 332.267,305.600 332.800 C 305.600 333.333,305.867 333.600,306.400 333.600 C 306.933 333.600,307.200 333.867,307.200 334.400 C 307.200 334.933,307.467 335.200,308.000 335.200 C 308.533 335.200,308.800 335.467,308.800 336.000 C 308.800 336.533,309.067 336.800,309.600 336.800 C 310.040 336.800,310.379 336.935,310.353 337.100 C 310.211 337.995,310.489 338.400,311.243 338.400 C 311.814 338.400,312.014 338.586,311.863 338.980 C 311.731 339.324,311.940 339.654,312.377 339.793 C 312.782 339.921,313.210 340.397,313.329 340.849 C 313.492 341.473,313.746 341.607,314.382 341.406 C 314.843 341.259,315.194 341.288,315.163 341.470 C 314.967 342.596,315.310 342.800,317.400 342.800 C 319.333 342.800,319.600 342.897,319.600 343.600 C 319.600 344.358,319.867 344.400,324.643 344.400 C 329.272 344.400,329.666 344.343,329.442 343.700 C 329.239 343.116,329.298 343.129,329.799 343.776 C 330.387 344.536,330.400 344.534,330.400 343.676 C 330.400 342.882,330.603 342.800,332.573 342.800 C 334.376 342.800,334.788 342.667,334.994 342.020 C 335.149 341.532,335.466 341.327,335.844 341.472 C 336.237 341.623,336.525 341.407,336.671 340.852 C 336.793 340.383,337.159 340.000,337.484 340.000 C 337.809 340.000,338.169 339.640,338.284 339.200 C 338.399 338.760,338.759 338.400,339.084 338.400 C 339.409 338.400,339.765 338.057,339.874 337.637 C 339.984 337.217,340.441 336.778,340.889 336.661 C 341.413 336.524,341.621 336.233,341.472 335.844 C 341.327 335.466,341.532 335.149,342.020 334.994 C 342.676 334.785,342.800 334.374,342.800 332.410 C 342.800 330.272,342.867 330.093,343.600 330.284 C 344.371 330.486,344.400 330.296,344.400 325.047 C 344.400 319.867,344.361 319.600,343.600 319.600 C 342.897 319.600,342.800 319.333,342.800 317.400 C 342.800 315.310,342.596 314.967,341.470 315.163 C 341.288 315.194,341.259 314.843,341.406 314.382 C 341.607 313.746,341.473 313.492,340.849 313.329 C 340.397 313.210,339.921 312.782,339.793 312.377 C 339.654 311.940,339.324 311.731,338.980 311.863 C 338.586 312.014,338.400 311.814,338.400 311.243 C 338.400 310.489,337.995 310.211,337.100 310.353 C 336.935 310.379,336.800 310.040,336.800 309.600 C 336.800 309.067,336.533 308.800,336.000 308.800 C 335.467 308.800,335.200 308.533,335.200 308.000 C 335.200 307.467,334.933 307.200,334.400 307.200 C 333.867 307.200,333.600 306.933,333.600 306.400 C 333.600 305.867,333.333 305.600,332.800 305.600 C 332.267 305.600,332.000 305.333,332.000 304.800 C 332.000 304.267,331.733 304.000,331.200 304.000 C 330.667 304.000,330.400 303.733,330.400 303.200 C 330.400 302.667,330.133 302.400,329.600 302.400 C 329.067 302.400,328.800 302.133,328.800 301.600 C 328.800 301.067,328.533 300.800,328.000 300.800 C 327.467 300.800,327.200 300.533,327.200 300.000 C 327.200 299.467,326.933 299.200,326.400 299.200 C 325.852 299.200,325.600 298.933,325.600 298.353 C 325.600 297.723,325.409 297.557,324.851 297.703 C 324.268 297.855,324.146 297.727,324.304 297.126 C 324.447 296.577,324.258 296.288,323.653 296.130 C 323.184 296.007,322.800 295.658,322.800 295.353 C 322.800 295.049,322.440 294.800,322.000 294.800 C 321.467 294.800,321.200 294.533,321.200 294.000 C 321.200 293.535,320.933 293.200,320.563 293.200 C 320.212 293.200,319.831 292.840,319.716 292.400 C 319.600 291.957,319.170 291.600,318.753 291.600 C 318.267 291.600,318.000 291.317,318.000 290.800 C 318.000 290.267,317.733 290.000,317.200 290.000 C 316.667 290.000,316.400 289.733,316.400 289.200 C 316.400 288.667,316.133 288.400,315.600 288.400 C 315.067 288.400,314.800 288.133,314.800 287.600 C 314.800 287.067,314.533 286.800,314.000 286.800 C 313.467 286.800,313.200 286.533,313.200 286.000 C 313.200 285.467,312.933 285.200,312.400 285.200 C 311.867 285.200,311.600 284.933,311.600 284.400 C 311.600 283.867,311.333 283.600,310.800 283.600 C 310.267 283.600,310.000 283.333,310.000 282.800 C 310.000 282.267,309.733 282.000,309.200 282.000 C 308.652 282.000,308.400 281.733,308.400 281.153 C 308.400 280.523,308.209 280.357,307.651 280.503 C 307.068 280.655,306.946 280.527,307.104 279.926 C 307.247 279.377,307.058 279.088,306.453 278.930 C 305.984 278.807,305.600 278.458,305.600 278.153 C 305.600 277.653,305.107 277.425,304.300 277.553 C 304.135 277.579,304.000 277.240,304.000 276.800 C 304.000 276.267,303.733 276.000,303.200 276.000 C 302.667 276.000,302.400 275.733,302.400 275.200 C 302.400 274.667,302.133 274.400,301.600 274.400 C 301.067 274.400,300.800 274.133,300.800 273.600 C 300.800 273.067,300.533 272.800,300.000 272.800 C 299.467 272.800,299.200 272.533,299.200 272.000 C 299.200 271.467,298.933 271.200,298.400 271.200 C 297.867 271.200,297.600 270.933,297.600 270.400 C 297.600 269.867,297.333 269.600,296.800 269.600 C 296.267 269.600,296.000 269.333,296.000 268.800 C 296.000 268.267,295.733 268.000,295.200 268.000 C 294.667 268.000,294.400 267.733,294.400 267.200 C 294.400 266.667,294.133 266.400,293.600 266.400 C 293.052 266.400,292.800 266.133,292.800 265.553 C 292.800 264.923,292.609 264.757,292.051 264.903 C 291.468 265.055,291.346 264.927,291.504 264.326 C 291.645 263.785,291.461 263.489,290.890 263.339 C 290.441 263.222,289.984 262.782,289.874 262.361 C 289.742 261.858,289.456 261.680,289.037 261.841 C 288.579 262.017,288.400 261.849,288.400 261.243 C 288.400 260.489,287.995 260.211,287.100 260.353 C 286.935 260.379,286.800 260.040,286.800 259.600 C 286.800 259.067,286.533 258.800,286.000 258.800 C 285.467 258.800,285.200 258.533,285.200 258.000 C 285.200 257.467,284.933 257.200,284.400 257.200 C 283.867 257.200,283.600 256.933,283.600 256.400 C 283.600 255.867,283.333 255.600,282.800 255.600 C 282.267 255.600,282.000 255.333,282.000 254.800 C 282.000 254.267,281.733 254.000,281.200 254.000 C 280.667 254.000,280.400 253.733,280.400 253.200 C 280.400 252.667,280.133 252.400,279.600 252.400 C 279.067 252.400,278.800 252.133,278.800 251.600 C 278.800 251.067,278.533 250.800,278.000 250.800 C 277.467 250.800,277.200 250.533,277.200 250.000 C 277.200 249.467,276.933 249.200,276.400 249.200 C 275.852 249.200,275.600 248.933,275.600 248.353 C 275.600 247.723,275.409 247.557,274.851 247.703 C 274.268 247.855,274.146 247.727,274.304 247.126 C 274.447 246.577,274.258 246.288,273.653 246.130 C 273.184 246.007,272.800 245.658,272.800 245.353 C 272.800 245.049,272.440 244.800,272.000 244.800 C 271.467 244.800,271.200 244.533,271.200 244.000 C 271.200 243.556,270.933 243.200,270.600 243.200 C 270.270 243.200,270.000 243.020,270.000 242.800 C 270.000 242.580,270.225 242.445,270.500 242.500 C 270.819 242.564,270.999 242.128,270.996 241.300 C 270.993 240.374,271.176 240.000,271.632 240.000 C 271.984 240.000,272.477 239.550,272.727 239.000 C 272.978 238.450,273.359 238.000,273.573 238.000 C 273.788 238.000,274.082 237.370,274.226 236.600 C 274.377 235.798,274.726 235.200,275.045 235.200 C 275.426 235.200,275.600 234.699,275.600 233.600 C 275.600 232.240,275.726 232.000,276.442 232.000 C 277.182 232.000,277.266 231.808,277.132 230.408 C 276.983 228.847,277.548 228.073,278.436 228.622 C 278.636 228.746,278.800 228.117,278.800 227.224 C 278.800 225.867,278.931 225.600,279.600 225.600 C 280.346 225.600,280.768 223.640,280.419 221.800 C 280.377 221.580,280.572 221.625,280.851 221.900 C 281.692 222.726,281.853 222.495,281.952 220.324 C 282.062 217.908,282.214 217.554,283.013 217.860 C 283.490 218.043,283.600 217.626,283.600 215.643 C 283.600 213.543,283.703 213.200,284.332 213.200 C 284.942 213.200,285.078 212.831,285.153 210.979 C 285.216 209.431,285.470 208.530,285.991 208.009 C 286.588 207.412,286.743 206.643,286.756 204.211 C 286.768 201.792,286.936 200.954,287.565 200.153 C 288.941 198.405,288.779 162.000,287.395 162.000 C 287.023 162.000,286.841 161.003,286.740 158.417 C 286.630 155.592,286.453 154.724,285.906 154.317 C 285.422 153.956,285.191 153.168,285.143 151.707 C 285.089 150.083,284.913 149.563,284.356 149.386 C 283.797 149.209,283.612 148.654,283.519 146.879 C 283.430 145.173,283.249 144.600,282.800 144.600 C 282.350 144.600,282.170 144.024,282.080 142.300 C 281.977 140.327,281.849 140.000,281.180 140.000 C 280.537 140.000,280.400 139.720,280.400 138.400 C 280.400 137.067,280.267 136.800,279.600 136.800 C 278.933 136.800,278.800 136.533,278.800 135.200 C 278.800 133.867,278.667 133.600,278.000 133.600 C 277.333 133.600,277.200 133.333,277.200 132.000 C 277.200 130.683,277.063 130.400,276.424 130.400 C 275.816 130.400,275.621 130.075,275.524 128.900 C 275.447 127.962,275.213 127.437,274.900 127.500 C 274.625 127.555,274.379 127.375,274.354 127.100 C 274.328 126.825,274.266 126.420,274.215 126.200 C 274.164 125.980,274.094 125.485,274.061 125.100 C 274.027 124.715,273.730 124.400,273.400 124.400 C 273.067 124.400,272.800 124.044,272.800 123.600 C 272.800 123.032,272.533 122.800,271.880 122.800 C 271.062 122.800,270.979 122.643,271.127 121.375 C 271.266 120.186,271.153 119.913,270.447 119.728 C 269.668 119.525,269.556 119.357,269.624 118.500 C 269.637 118.335,269.232 118.101,268.724 117.980 C 268.020 117.813,267.828 117.524,267.917 116.767 C 267.996 116.104,267.697 115.481,267.017 114.890 C 266.458 114.403,266.000 113.824,266.000 113.603 C 266.000 113.381,265.730 113.200,265.400 113.200 C 265.070 113.200,264.800 112.930,264.800 112.600 C 264.800 112.059,264.325 111.822,263.500 111.953 C 263.335 111.979,263.200 111.640,263.200 111.200 C 263.200 110.484,262.784 110.213,261.900 110.353 C 261.735 110.379,261.600 110.040,261.600 109.600 C 261.600 109.067,261.333 108.800,260.800 108.800 C 260.267 108.800,260.000 108.533,260.000 108.000 C 260.000 107.560,259.671 106.871,259.269 106.469 C 258.868 106.068,258.422 105.434,258.279 105.060 C 258.135 104.687,257.699 104.263,257.309 104.117 C 256.919 103.972,256.365 103.526,256.077 103.126 C 255.790 102.727,255.205 102.400,254.777 102.400 C 254.267 102.400,254.000 102.126,254.000 101.600 C 254.000 101.083,253.733 100.800,253.247 100.800 C 252.830 100.800,252.400 100.443,252.284 100.000 C 252.169 99.560,251.788 99.200,251.437 99.200 C 251.067 99.200,250.800 98.865,250.800 98.400 C 250.800 97.663,249.924 97.330,248.632 97.575 C 248.430 97.614,248.495 97.367,248.777 97.027 C 249.205 96.512,249.167 96.363,248.545 96.130 C 248.135 95.976,247.606 95.591,247.369 95.275 C 247.132 94.959,246.444 94.700,245.840 94.700 C 245.045 94.700,244.640 94.431,244.372 93.726 C 244.168 93.190,243.842 92.851,243.646 92.972 C 243.451 93.092,243.068 92.923,242.796 92.596 C 242.524 92.268,242.459 91.974,242.651 91.943 C 242.843 91.912,242.280 91.777,241.400 91.643 C 240.161 91.455,239.827 91.240,239.919 90.694 C 239.984 90.305,239.894 90.012,239.719 90.041 C 238.877 90.183,238.432 89.930,238.192 89.174 C 237.986 88.527,237.654 88.375,236.665 88.474 C 235.611 88.579,235.379 88.450,235.272 87.700 C 235.162 86.926,234.904 86.800,233.421 86.800 C 232.256 86.800,231.520 86.573,231.149 86.100 C 230.651 85.466,230.666 85.451,231.300 85.949 C 231.908 86.426,232.000 86.408,232.000 85.807 C 232.000 85.242,231.708 85.144,230.400 85.269 C 228.957 85.406,228.800 85.332,228.800 84.511 C 228.800 83.718,228.597 83.600,227.227 83.600 C 225.980 83.600,225.599 83.426,225.387 82.760 C 225.180 82.108,224.869 81.958,223.991 82.087 C 223.132 82.213,222.768 82.049,222.474 81.403 C 222.169 80.733,221.680 80.533,220.154 80.454 C 218.111 80.348,217.800 80.218,217.800 79.467 C 217.799 79.168,217.009 79.000,215.600 79.000 C 213.740 79.000,213.366 78.877,213.181 78.200 C 212.996 77.520,212.634 77.404,210.781 77.424 C 209.035 77.443,208.543 77.304,208.313 76.724 C 208.137 76.281,207.594 75.988,206.913 75.969 C 203.009 75.862,200.961 75.561,200.579 75.039 C 199.865 74.063,162.000 74.122,162.000 75.100 M196.230 103.121 C 196.644 103.712,197.332 103.891,199.457 103.960 C 201.614 104.030,202.267 104.204,202.702 104.824 C 203.115 105.414,203.719 105.600,205.223 105.600 C 206.702 105.600,207.200 105.749,207.200 106.192 C 207.200 106.814,208.068 107.112,210.400 107.292 C 211.265 107.359,211.762 107.591,211.700 107.900 C 211.634 108.231,212.124 108.400,213.153 108.400 C 214.370 108.400,214.752 108.573,214.916 109.200 C 215.076 109.813,215.462 110.000,216.563 110.000 C 217.733 110.000,218.000 110.148,218.000 110.800 C 218.000 111.240,218.135 111.579,218.300 111.553 C 219.921 111.297,221.200 111.670,221.200 112.400 C 221.200 112.917,221.467 113.200,221.953 113.200 C 222.370 113.200,222.800 113.557,222.916 114.000 C 223.070 114.589,223.462 114.800,224.400 114.800 C 225.338 114.800,225.730 115.011,225.884 115.600 C 226.016 116.104,226.430 116.400,227.002 116.400 C 227.622 116.400,227.893 116.622,227.856 117.100 C 227.811 117.658,228.093 117.787,229.245 117.737 C 230.490 117.683,230.683 117.794,230.645 118.537 C 230.613 119.153,230.867 119.438,231.531 119.532 C 232.171 119.623,232.389 119.852,232.229 120.269 C 232.080 120.657,232.284 120.949,232.798 121.084 C 233.239 121.199,233.600 121.559,233.600 121.884 C 233.600 122.209,233.960 122.569,234.400 122.684 C 234.840 122.799,235.200 123.130,235.200 123.420 C 235.200 123.709,235.543 124.055,235.963 124.188 C 236.383 124.321,236.827 124.694,236.950 125.015 C 237.074 125.337,237.451 125.600,237.787 125.600 C 238.133 125.600,238.400 125.948,238.400 126.400 C 238.400 126.933,238.667 127.200,239.200 127.200 C 239.748 127.200,240.000 127.467,240.000 128.047 C 240.000 128.733,240.189 128.857,240.993 128.703 C 241.855 128.539,241.957 128.631,241.764 129.402 C 241.595 130.074,241.746 130.345,242.382 130.511 C 242.844 130.632,243.173 130.972,243.111 131.266 C 243.045 131.585,243.343 131.789,243.853 131.773 C 244.513 131.753,244.703 131.980,244.693 132.773 C 244.668 134.736,244.803 135.200,245.400 135.200 C 245.730 135.200,246.000 135.487,246.000 135.837 C 246.000 136.188,246.360 136.569,246.800 136.684 C 247.374 136.834,247.600 137.230,247.600 138.084 C 247.600 138.938,247.826 139.334,248.400 139.484 C 248.840 139.599,249.200 140.020,249.200 140.419 C 249.200 140.867,249.544 141.193,250.100 141.272 C 250.880 141.383,250.982 141.601,250.868 142.911 C 250.796 143.741,250.886 144.395,251.068 144.363 C 252.126 144.178,252.400 144.515,252.400 146.000 C 252.400 147.333,252.533 147.600,253.200 147.600 C 253.867 147.600,254.000 147.867,254.000 149.200 C 254.000 150.533,254.133 150.800,254.800 150.800 C 255.555 150.800,255.911 152.447,255.637 154.670 C 255.605 154.928,255.944 155.255,256.389 155.397 C 257.072 155.613,257.200 155.996,257.200 157.827 C 257.200 159.492,257.340 160.000,257.800 160.000 C 258.200 160.000,258.400 160.400,258.400 161.200 C 258.400 161.860,258.545 162.400,258.723 162.400 C 258.901 162.400,259.001 163.297,258.945 164.393 C 258.890 165.489,258.969 166.367,259.122 166.345 C 260.131 166.200,260.225 166.726,260.186 172.300 C 260.163 175.545,260.254 179.492,260.388 181.072 C 260.523 182.651,260.520 183.874,260.382 183.789 C 260.244 183.703,260.146 186.461,260.165 189.917 C 260.195 195.250,260.109 196.200,259.600 196.200 C 259.149 196.200,258.919 196.945,258.674 199.199 C 258.459 201.175,258.143 202.312,257.749 202.532 C 257.421 202.716,257.182 203.257,257.220 203.733 C 257.408 206.113,257.183 207.111,256.414 207.312 C 255.773 207.480,255.634 207.848,255.663 209.306 C 255.683 210.289,255.502 211.433,255.262 211.847 C 255.021 212.261,254.819 212.375,254.812 212.100 C 254.780 210.793,254.031 211.804,253.923 213.300 C 253.824 214.668,253.662 214.977,253.094 214.881 C 252.705 214.816,252.412 214.906,252.441 215.081 C 252.711 216.687,252.333 218.000,251.600 218.000 C 250.933 218.000,250.800 218.267,250.800 219.600 C 250.800 221.073,250.533 221.411,249.500 221.247 C 249.335 221.221,249.200 221.539,249.200 221.953 C 249.200 222.368,248.863 222.795,248.450 222.903 C 247.939 223.036,247.700 223.461,247.700 224.234 C 247.700 224.947,247.384 225.578,246.850 225.933 C 246.382 226.244,246.000 226.830,246.000 227.236 C 246.000 227.698,245.794 227.896,245.452 227.764 C 244.864 227.539,244.249 228.632,244.622 229.236 C 244.746 229.436,244.586 229.600,244.266 229.600 C 243.696 229.600,243.001 230.678,243.148 231.334 C 243.189 231.518,242.858 231.764,242.411 231.881 C 241.959 232.000,241.600 232.426,241.600 232.847 C 241.600 233.333,241.317 233.600,240.800 233.600 C 240.267 233.600,240.000 233.867,240.000 234.400 C 240.000 234.865,239.733 235.200,239.363 235.200 C 239.012 235.200,238.631 235.560,238.516 236.000 C 238.400 236.443,237.970 236.800,237.553 236.800 C 237.067 236.800,236.800 237.083,236.800 237.600 C 236.800 238.065,236.533 238.400,236.163 238.400 C 235.812 238.400,235.431 238.760,235.316 239.200 C 235.200 239.643,234.770 240.000,234.353 240.000 C 233.867 240.000,233.600 240.283,233.600 240.800 C 233.600 241.317,233.333 241.600,232.847 241.600 C 232.426 241.600,232.000 241.959,231.881 242.411 C 231.764 242.858,231.518 243.189,231.334 243.148 C 230.678 243.001,229.600 243.696,229.600 244.266 C 229.600 244.586,229.436 244.746,229.236 244.622 C 228.678 244.277,227.600 244.818,227.600 245.443 C 227.600 245.749,227.352 246.000,227.049 246.000 C 226.746 246.000,226.251 246.358,225.949 246.797 C 225.485 247.470,224.641 247.818,223.100 247.970 C 222.935 247.987,222.800 248.270,222.800 248.600 C 222.800 248.933,222.444 249.200,222.000 249.200 C 221.467 249.200,221.200 249.467,221.200 250.000 C 221.200 250.667,220.933 250.800,219.600 250.800 C 218.267 250.800,218.000 250.933,218.000 251.600 C 218.000 252.333,216.687 252.711,215.081 252.441 C 214.906 252.412,214.816 252.705,214.881 253.094 C 214.977 253.662,214.668 253.824,213.300 253.923 C 211.804 254.031,210.793 254.780,212.100 254.812 C 212.375 254.819,212.261 255.021,211.847 255.262 C 211.433 255.502,210.289 255.683,209.306 255.663 C 207.848 255.634,207.480 255.773,207.312 256.414 C 207.111 257.183,206.113 257.408,203.733 257.220 C 203.257 257.182,202.716 257.421,202.532 257.749 C 202.312 258.143,201.175 258.459,199.199 258.674 C 196.945 258.919,196.200 259.149,196.200 259.600 C 196.200 260.109,195.250 260.195,189.917 260.165 C 186.461 260.146,183.703 260.244,183.789 260.382 C 183.874 260.520,182.651 260.523,181.072 260.388 C 179.492 260.254,175.545 260.163,172.300 260.186 C 166.726 260.225,166.200 260.131,166.345 259.122 C 166.367 258.969,165.489 258.890,164.393 258.945 C 163.297 259.001,162.400 258.901,162.400 258.723 C 162.400 258.545,161.860 258.400,161.200 258.400 C 160.400 258.400,160.000 258.200,160.000 257.800 C 160.000 257.340,159.492 257.200,157.827 257.200 C 155.996 257.200,155.613 257.072,155.397 256.389 C 155.255 255.944,154.928 255.605,154.670 255.637 C 152.447 255.911,150.800 255.555,150.800 254.800 C 150.800 254.133,150.533 254.000,149.200 254.000 C 147.867 254.000,147.600 253.867,147.600 253.200 C 147.600 252.533,147.333 252.400,146.000 252.400 C 144.515 252.400,144.178 252.126,144.363 251.068 C 144.395 250.886,143.741 250.796,142.911 250.868 C 141.601 250.982,141.383 250.880,141.272 250.100 C 141.193 249.544,140.867 249.200,140.419 249.200 C 140.020 249.200,139.599 248.840,139.484 248.400 C 139.334 247.826,138.938 247.600,138.084 247.600 C 137.230 247.600,136.834 247.374,136.684 246.800 C 136.569 246.360,136.188 246.000,135.837 246.000 C 135.487 246.000,135.200 245.730,135.200 245.400 C 135.200 244.803,134.736 244.668,132.773 244.693 C 131.980 244.703,131.753 244.513,131.773 243.853 C 131.789 243.343,131.585 243.045,131.266 243.111 C 130.972 243.173,130.632 242.844,130.511 242.382 C 130.345 241.746,130.074 241.595,129.402 241.764 C 128.631 241.957,128.539 241.855,128.703 240.993 C 128.857 240.189,128.733 240.000,128.047 240.000 C 127.467 240.000,127.200 239.748,127.200 239.200 C 127.200 238.667,126.933 238.400,126.400 238.400 C 125.948 238.400,125.600 238.133,125.600 237.787 C 125.600 237.451,125.337 237.074,125.015 236.950 C 124.694 236.827,124.321 236.383,124.188 235.963 C 124.055 235.543,123.709 235.200,123.420 235.200 C 123.130 235.200,122.799 234.840,122.684 234.400 C 122.569 233.960,122.209 233.600,121.884 233.600 C 121.559 233.600,121.199 233.239,121.084 232.798 C 120.949 232.284,120.657 232.080,120.269 232.229 C 119.852 232.389,119.623 232.171,119.532 231.531 C 119.438 230.867,119.153 230.613,118.537 230.645 C 117.794 230.683,117.683 230.490,117.737 229.245 C 117.787 228.093,117.658 227.811,117.100 227.856 C 116.622 227.893,116.400 227.622,116.400 227.002 C 116.400 226.430,116.104 226.016,115.600 225.884 C 115.011 225.730,114.800 225.338,114.800 224.400 C 114.800 223.462,114.589 223.070,114.000 222.916 C 113.557 222.800,113.200 222.370,113.200 221.953 C 113.200 221.467,112.917 221.200,112.400 221.200 C 111.670 221.200,111.297 219.921,111.553 218.300 C 111.579 218.135,111.240 218.000,110.800 218.000 C 110.148 218.000,110.000 217.733,110.000 216.563 C 110.000 215.462,109.813 215.076,109.200 214.916 C 108.573 214.752,108.400 214.370,108.400 213.153 C 108.400 212.124,108.231 211.634,107.900 211.700 C 107.591 211.762,107.359 211.265,107.292 210.400 C 107.126 208.243,106.825 207.200,106.369 207.200 C 106.140 207.200,106.081 207.408,106.238 207.662 C 106.415 207.948,106.348 208.015,106.062 207.838 C 105.805 207.680,105.600 206.596,105.600 205.399 C 105.600 203.721,105.429 203.125,104.824 202.702 C 104.204 202.267,104.030 201.614,103.960 199.457 C 103.891 197.331,103.712 196.644,103.120 196.229 C 102.425 195.742,102.367 195.077,102.367 187.551 C 102.366 166.552,102.371 166.400,102.957 166.400 C 103.748 166.400,104.000 165.494,104.000 162.656 C 104.000 160.635,104.148 160.070,104.800 159.600 C 105.383 159.180,105.600 158.565,105.600 157.332 C 105.600 156.181,105.809 155.523,106.255 155.273 C 106.657 155.048,106.971 154.233,107.069 153.154 C 107.273 150.905,107.497 150.289,107.997 150.598 C 108.242 150.750,108.400 150.212,108.400 149.224 C 108.400 147.867,108.531 147.600,109.200 147.600 C 109.867 147.600,110.000 147.333,110.000 146.000 C 110.000 144.683,110.137 144.400,110.776 144.400 C 111.384 144.400,111.579 144.075,111.676 142.900 C 111.760 141.889,111.995 141.400,112.400 141.400 C 112.730 141.400,113.055 141.013,113.122 140.541 C 113.190 140.068,113.595 139.590,114.022 139.478 C 114.581 139.332,114.800 138.927,114.800 138.037 C 114.800 137.067,114.972 136.800,115.600 136.800 C 116.177 136.800,116.400 136.533,116.400 135.844 C 116.400 135.180,116.613 134.906,117.100 134.944 C 117.633 134.987,117.830 134.641,117.924 133.500 C 118.021 132.325,118.216 132.000,118.824 132.000 C 119.333 132.000,119.600 131.725,119.600 131.200 C 119.600 130.667,119.867 130.400,120.400 130.400 C 120.924 130.400,121.200 130.133,121.200 129.627 C 121.200 129.202,121.560 128.740,122.000 128.600 C 122.440 128.460,122.800 128.109,122.800 127.820 C 122.800 127.530,123.160 127.199,123.600 127.084 C 124.040 126.969,124.400 126.588,124.400 126.237 C 124.400 125.887,124.670 125.600,125.000 125.600 C 125.330 125.600,125.600 125.351,125.600 125.047 C 125.600 124.742,125.960 124.399,126.400 124.284 C 126.840 124.169,127.200 123.788,127.200 123.437 C 127.200 123.087,127.458 122.800,127.773 122.800 C 128.088 122.800,128.460 122.440,128.600 122.000 C 128.740 121.560,129.202 121.200,129.627 121.200 C 130.133 121.200,130.400 120.924,130.400 120.400 C 130.400 119.867,130.667 119.600,131.200 119.600 C 131.725 119.600,132.000 119.333,132.000 118.824 C 132.000 118.216,132.325 118.021,133.500 117.924 C 134.641 117.830,134.987 117.633,134.944 117.100 C 134.906 116.613,135.180 116.400,135.844 116.400 C 136.533 116.400,136.800 116.177,136.800 115.600 C 136.800 114.972,137.067 114.800,138.037 114.800 C 138.927 114.800,139.332 114.581,139.478 114.022 C 139.590 113.595,140.068 113.190,140.541 113.122 C 141.013 113.055,141.400 112.730,141.400 112.400 C 141.400 111.995,141.889 111.760,142.900 111.676 C 144.075 111.579,144.400 111.384,144.400 110.776 C 144.400 110.137,144.683 110.000,146.000 110.000 C 147.333 110.000,147.600 109.867,147.600 109.200 C 147.600 108.531,147.867 108.400,149.224 108.400 C 150.212 108.400,150.750 108.242,150.598 107.997 C 150.289 107.497,150.905 107.273,153.154 107.069 C 154.233 106.971,155.048 106.657,155.273 106.255 C 155.523 105.809,156.181 105.600,157.332 105.600 C 158.565 105.600,159.180 105.383,159.600 104.800 C 160.087 104.124,160.635 104.000,163.126 104.000 C 165.726 104.000,166.099 103.907,166.282 103.210 C 166.643 101.826,195.263 101.741,196.230 103.121 " stroke="none" fill="#FFFFFF" fill-rule="evenodd"></path></g></svg>